<?xml version="1.0" encoding="UTF-8"?>
<svg id="Capa_1" xmlns="http://www.w3.org/2000/svg" version="1.1" viewBox="0 0 172.34 172.34">
  <defs>
    <style>
      .st0 {
        fill: #6de063;
      }
    </style>
  </defs>
  <path class="st0" d="M78.93,10.24c62.25-5.15,104.95,61.83,72.32,115.58-30.93,50.95-106.77,48.12-133.34-5.23C-5.91,72.78,25.56,14.66,78.93,10.24ZM78.29,21.22c-40.11,3.73-66.19,45.55-54.92,83.59,16.43,55.45,92.68,63.61,119.95,13.08,25.67-47.56-11.89-101.61-65.03-96.67Z"/>
  <path class="st0" d="M117.64,58.6c4.44-.4,6.11,5.18,3.02,8.23-13.01,13.67-24.41,29-37.39,42.67-6.28,6.61-6.1,4.82-12.61-.97-8.12-7.22-15.67-15.47-23.63-22.91-.84-3.24,2.79-7.31,6.01-6.01l24.41,22.77,37.44-42.6c.76-.5,1.86-1.09,2.75-1.17Z"/>
</svg>
